<svg xmlns="http://www.w3.org/2000/svg" xmlns:oryx="http://oryx-editor.org" id="_8D243FC8-A27E-496D-807F-2E2495DE1127" width="553.828125" height="264.00001525878906" xmlns:xlink="http://www.w3.org/1999/xlink" xmlns:svg="http://www.w3.org/2000/svg"><defs><marker id="_8C7A1464-6403-467B-BBE4-2943EFC250BEstart" refX="1" refY="5" markerUnits="userSpaceOnUse" markerWidth="17" markerHeight="11" orient="auto" fill="#000000" stroke="#000000"> 	  		<path id="_8C7A1464-6403-467B-BBE4-2943EFC250BEconditional" d="M 0 5 L 8 0 L 16 5 L 8 10 L 0 5" fill="white" stroke="#000000" stroke-width="1" display="none"/> 			<path id="_8C7A1464-6403-467B-BBE4-2943EFC250BEdefault" d="M 5 0 L 11 10" fill="white" stroke="#000000" stroke-width="1" display="none"/> 	  	</marker><marker id="_8C7A1464-6403-467B-BBE4-2943EFC250BEend" refX="15" refY="6" markerUnits="userSpaceOnUse" markerWidth="15" markerHeight="12" orient="auto" fill="#000000" stroke="#000000"> 	  		<path id="_8C7A1464-6403-467B-BBE4-2943EFC250BEframe2" d="M 0 1 L 15 6 L 0 11z" fill="#000000" stroke="#000000" stroke-linejoin="round" stroke-width="2"/> 	  	</marker><marker id="_F0A3CB21-6AC0-4672-8BC8-2554DA0137E8start" refX="1" refY="5" markerUnits="userSpaceOnUse" markerWidth="17" markerHeight="11" orient="auto" fill="#000000" stroke="#000000"> 	  		<path id="_F0A3CB21-6AC0-4672-8BC8-2554DA0137E8conditional" d="M 0 5 L 8 0 L 16 5 L 8 10 L 0 5" fill="white" stroke="#000000" stroke-width="1" display="none"/> 			<path id="_F0A3CB21-6AC0-4672-8BC8-2554DA0137E8default" d="M 5 0 L 11 10" fill="white" stroke="#000000" stroke-width="1" display="none"/> 	  	</marker><marker id="_F0A3CB21-6AC0-4672-8BC8-2554DA0137E8end" refX="15" refY="6" markerUnits="userSpaceOnUse" markerWidth="15" markerHeight="12" orient="auto" fill="#000000" stroke="#000000"> 	  		<path id="_F0A3CB21-6AC0-4672-8BC8-2554DA0137E8frame2" d="M 0 1 L 15 6 L 0 11z" fill="#000000" stroke="#000000" stroke-linejoin="round" stroke-width="2"/> 	  	</marker><marker id="_76BBA9D9-10AC-4173-B6B8-481B0E53B6DBstart" refX="1" refY="5" markerUnits="userSpaceOnUse" markerWidth="17" markerHeight="11" orient="auto" fill="#000000" stroke="#000000"> 	  		<path id="_76BBA9D9-10AC-4173-B6B8-481B0E53B6DBconditional" d="M 0 5 L 8 0 L 16 5 L 8 10 L 0 5" fill="white" stroke="#000000" stroke-width="1" display="none"/> 			<path id="_76BBA9D9-10AC-4173-B6B8-481B0E53B6DBdefault" d="M 5 0 L 11 10" fill="white" stroke="#000000" stroke-width="1" display="none"/> 	  	</marker><marker id="_76BBA9D9-10AC-4173-B6B8-481B0E53B6DBend" refX="15" refY="6" markerUnits="userSpaceOnUse" markerWidth="15" markerHeight="12" orient="auto" fill="#000000" stroke="#000000"> 	  		<path id="_76BBA9D9-10AC-4173-B6B8-481B0E53B6DBframe2" d="M 0 1 L 15 6 L 0 11z" fill="#000000" stroke="#000000" stroke-linejoin="round" stroke-width="2"/> 	  	</marker></defs><g stroke="none" font-family="Verdana, sans-serif" font-size-adjust="none" font-style="normal" font-variant="normal" font-weight="normal" line-heigth="normal" font-size="12"><g class="stencils" transform="translate(15.828125, 15.000000953674316)"><g class="me"/><g class="children"><g id="_34EA13FD-F9E2-4326-AB34-AF95B8D52470" bpmn2nodeid="processStartEvent"><g class="stencils" transform="translate(120, 165)"><g class="me"><g pointer-events="fill" id="_34EA13FD-F9E2-4326-AB34-AF95B8D52470">        <defs id="_34EA13FD-F9E2-4326-AB34-AF95B8D52470__34EA13FD-F9E2-4326-AB34-AF95B8D52470_5"> 		<radialGradient id="_34EA13FD-F9E2-4326-AB34-AF95B8D52470background" cx="10%" cy="10%" r="100%" fx="10%" fy="10%"> 			<stop offset="0%" stop-color="#ffffff" stop-opacity="1" id="_34EA13FD-F9E2-4326-AB34-AF95B8D52470__34EA13FD-F9E2-4326-AB34-AF95B8D52470_6"/> 			<stop id="_34EA13FD-F9E2-4326-AB34-AF95B8D52470fill_el" offset="100%" stop-color="#9acd32" stop-opacity="1"/> 		</radialGradient> 	</defs> 	     <circle id="_34EA13FD-F9E2-4326-AB34-AF95B8D52470bg_frame" cx="15" cy="15" r="15" stroke="#000000" fill="url(#_34EA13FD-F9E2-4326-AB34-AF95B8D52470background) white" stroke-width="1" style="stroke-dasharray: 5.5, 3"/>      <circle id="_34EA13FD-F9E2-4326-AB34-AF95B8D52470frame" cx="15" cy="15" r="15" stroke="#000000" fill="none" stroke-width="1" display="inherit"/>  	<text font-size="11" id="_34EA13FD-F9E2-4326-AB34-AF95B8D52470text_name" x="15" y="32" oryx:align="top center" stroke="black" stroke-width="0pt" letter-spacing="-0.01px" fill="#000000" text-anchor="middle" transform="rotate(0 15 32)" visibility="inherit" oryx:fontSize="11"/>   </g></g><g class="children" style="overflow:hidden"/><g class="edge"/></g><g class="controls"><g class="dockers"/><g class="magnets" transform="translate(120, 165)"><g pointer-events="all" display="none" transform="translate(7, 7)"><circle cx="8" cy="8" r="4" stroke="none" fill="red" fill-opacity="0.3"/></g></g></g></g><g id="_DAF8F550-6C2C-4C5A-8F9C-8E5844FA0555" bpmn2nodeid="_17BDFCF9-5795-4DA9-8812-147453623614"><g class="stencils" transform="translate(195, 140)"><g class="me"><g pointer-events="fill" oryx:minimumSize="50 40" id="_DAF8F550-6C2C-4C5A-8F9C-8E5844FA0555">   	<defs id="_DAF8F550-6C2C-4C5A-8F9C-8E5844FA0555__DAF8F550-6C2C-4C5A-8F9C-8E5844FA0555_17"> 		<radialGradient id="_DAF8F550-6C2C-4C5A-8F9C-8E5844FA0555background" cx="10%" cy="10%" r="100%" fx="10%" fy="10%"> 			<stop offset="0%" stop-color="#ffffff" stop-opacity="1" id="_DAF8F550-6C2C-4C5A-8F9C-8E5844FA0555__DAF8F550-6C2C-4C5A-8F9C-8E5844FA0555_18"/> 			<stop id="_DAF8F550-6C2C-4C5A-8F9C-8E5844FA0555fill_el" offset="100%" stop-color="#fafad2" stop-opacity="1"/> 		</radialGradient> 		<radialGradient id="_DAF8F550-6C2C-4C5A-8F9C-8E5844FA0555borderbackground" cx="10%" cy="10%" r="100%" fx="10%" fy="10%"> 			<stop offset="0%" stop-color="#ffffff" stop-opacity="1" id="_DAF8F550-6C2C-4C5A-8F9C-8E5844FA0555__DAF8F550-6C2C-4C5A-8F9C-8E5844FA0555_19"/> 			<stop id="_DAF8F550-6C2C-4C5A-8F9C-8E5844FA0555fill_border" offset="100%" stop-color="#000000" stop-opacity="1" stroke="#000000"/> 		</radialGradient> 	</defs> 	 	<rect id="_DAF8F550-6C2C-4C5A-8F9C-8E5844FA0555text_frame" oryx:anchors="bottom top right left" x="1" y="1" width="94" height="79" rx="10" ry="10" stroke="none" stroke-width="0" fill="none"/> 	<rect id="_DAF8F550-6C2C-4C5A-8F9C-8E5844FA0555bg_frame" oryx:resize="vertical horizontal" x="0" y="0" width="100" height="80" rx="10" ry="10" stroke="#000000" stroke-width="1" fill="url(#_DAF8F550-6C2C-4C5A-8F9C-8E5844FA0555background) #ffffcc"/> 		<text font-size="12" id="_DAF8F550-6C2C-4C5A-8F9C-8E5844FA0555text_name" x="50" y="40" oryx:align="middle center" oryx:fittoelem="text_frame" stroke="black" text-anchor="middle" stroke-width="0pt" letter-spacing="-0.01px" fill="#000000" transform="rotate(0 50 40)" visibility="inherit" oryx:fontSize="12"><tspan x="50" y="40" dy="5" id="ext-gen608">driving-eligibility</tspan></text>     <g id="_DAF8F550-6C2C-4C5A-8F9C-8E5844FA0555manualTask" transform="scale(0.7,0.7) translate(8,8)" display="none">     	<path oryx:anchors="top left" id="_DAF8F550-6C2C-4C5A-8F9C-8E5844FA0555frame" style="opacity:1;fill:none;fill-opacity:1;stroke-width:1" d="M0.5,3.751l4.083-3.25c0,0,11.166,0.083,12.083,0.083s-2.417,2.917-1.5,2.917     s11.667,0,12.584,0c1.166,1.708-0.168,3.167-0.834,3.667s0.875,1.917-1,4.417c-0.75,0.25,0.75,1.875-1.333,3.333     c-1.167,0.583,0.583,1.542-1.25,2.833c-1.167,0-20.833,0.083-20.833,0.083l-2-1.333V3.751z" stroke="#000000"/> 		<path id="_DAF8F550-6C2C-4C5A-8F9C-8E5844FA0555frame2" oryx:anchors="top left" style="opacity:1;fill:none;stroke-width:2" d="M 13.5 7 L 27 7" stroke="#000000"/> 		<path id="_DAF8F550-6C2C-4C5A-8F9C-8E5844FA0555frame3" oryx:anchors="top left" style="opacity:1;fill:none;stroke-width:2" d="M 13.5 11 L 26 11" stroke="#000000"/> 		<path id="_DAF8F550-6C2C-4C5A-8F9C-8E5844FA0555frame4" oryx:anchors="top left" style="opacity:1;fill:none;stroke-width:1.5" d="M 14 14.5 L 25 14.5" stroke="#000000"/> 		<path id="_DAF8F550-6C2C-4C5A-8F9C-8E5844FA0555frame5" oryx:anchors="top left" style="opacity:1;fill:none;stroke-width:1.5" d="M 8.2 3.1 L 15 3.1" stroke="#000000"/> 	</g> 	 	<g id="_DAF8F550-6C2C-4C5A-8F9C-8E5844FA0555businessRuleTask" transform="scale(0.7,0.7) translate(8,8)" display="inherit"> 		<rect id="_DAF8F550-6C2C-4C5A-8F9C-8E5844FA0555frame6" oryx:anchors="top left" x="0" y="0" width="22" height="4" style="opacity:1;fill:#B3B1B3;fill-opacity:1;" stroke="#000000"/> 		<rect id="_DAF8F550-6C2C-4C5A-8F9C-8E5844FA0555frame7" oryx:anchors="top left" x="0" y="4" style="opacity:1;fill:none;" width="22" height="12" stroke="#000000"/> 		<path id="_DAF8F550-6C2C-4C5A-8F9C-8E5844FA0555frame8" oryx:anchors="top left" style="opacity:1;fill:none;" d="M 0 10 L 22 10" stroke="#000000"/> 		<path id="_DAF8F550-6C2C-4C5A-8F9C-8E5844FA0555frame9" oryx:anchors="top left" style="opacity:1; fill:none;" d="M 7 4 L 7 16" stroke="#000000"/> 	</g> 	 	<g id="_DAF8F550-6C2C-4C5A-8F9C-8E5844FA0555scriptTask" transform="scale(0.7,0.7) translate(8,8)" display="none"> 		<path oryx:anchors="top left" id="_DAF8F550-6C2C-4C5A-8F9C-8E5844FA0555frame10" style="opacity:1;fill:none;" stroke="#000000" d="M6.402,0.5h14.5c0,0-5.833,2.833-5.833,5.583s4.417,6,4.417,9.167    s-4.167,5.083-4.167,5.083H0.235c0,0,5-2.667,5-5s-4.583-6.75-4.583-9.25S6.402,0.5,6.402,0.5z"/> 		<path oryx:anchors="top left" id="_DAF8F550-6C2C-4C5A-8F9C-8E5844FA0555frame11" style="opacity:1;fill:none;stroke-width:1.5" d="M 3.5 4.5 L 13.5 4.5" stroke="#000000"/> 		<path oryx:anchors="top left" id="_DAF8F550-6C2C-4C5A-8F9C-8E5844FA0555frame12" style="opacity:1;fill:none;stroke-width:1.5" d="M 3.8 8.5 L 13.8 8.5" stroke="#000000"/> 		<path oryx:anchors="top left" id="_DAF8F550-6C2C-4C5A-8F9C-8E5844FA0555frame13" style="opacity:1;fill:none;stroke-width:1.5" d="M 6.3 12.5 L 16.3 12.5" stroke="#000000"/> 		<path oryx:anchors="top left" id="_DAF8F550-6C2C-4C5A-8F9C-8E5844FA0555frame14" style="opacity:1;fill:none;stroke-width:1.5" d="M 6.5 16.5 L 16.5 16.5" stroke="#000000"/> 	</g> 	 	<g id="_DAF8F550-6C2C-4C5A-8F9C-8E5844FA0555userTask" transform="scale(0.7,0.7) translate(8,8)" display="none"> 		<path id="_DAF8F550-6C2C-4C5A-8F9C-8E5844FA0555frame15" oryx:anchors="top left" style="opacity:1;fill:#F4F6F7" stroke="#000000" d="M0.585,24.167h24.083v-7.833c0,0-2.333-3.917-7.083-5.167h-9.25    c-4.417,1.333-7.833,5.75-7.833,5.75L0.585,24.167z"/> 		<path id="_DAF8F550-6C2C-4C5A-8F9C-8E5844FA0555frame16" oryx:anchors="top left" style="opacity:1;fill:none" d="M 6 20 L 6 24" stroke="#000000"/> 		<path id="_DAF8F550-6C2C-4C5A-8F9C-8E5844FA0555frame17" oryx:anchors="top left" style="opacity:1;fill:none" d="M 20 20 L 20 24" stroke="#000000"/> 		<circle id="_DAF8F550-6C2C-4C5A-8F9C-8E5844FA0555frame18" oryx:anchors="top left" fill="black" cx="13.002" cy="5.916" r="5.417" stroke="#000000"/> 		<path id="_DAF8F550-6C2C-4C5A-8F9C-8E5844FA0555frame19" oryx:anchors="top left" style="opacity:1;fill:#F0EFF0;" stroke="#000000" d="M8.043,7.083c0,0,2.814-2.426,5.376-1.807s4.624-0.693,4.624-0.693    c0.25,1.688,0.042,3.75-1.458,5.584c0,0,1.083,0.75,1.083,1.5s0.125,1.875-1,3s-5.5,1.25-6.75,0S8.668,12.834,8.668,12    s0.583-1.25,1.25-1.917C8.835,9.5,7.419,7.708,8.043,7.083z"/> 	</g> 	 	<g id="_DAF8F550-6C2C-4C5A-8F9C-8E5844FA0555serviceTask" transform="scale(0.7,0.7) translate(8,8)" display="none"> 		<polygon oryx:anchors="top left" id="_DAF8F550-6C2C-4C5A-8F9C-8E5844FA0555frame20" style="opacity:1;fill:#ffffff" stroke="#000000" points="15.392,5.064 17.954,2.502 20.347,4.895 17.786,7.455     18.729,9.732 22.353,9.732 22.353,13.115 18.731,13.115 17.788,15.392 20.351,17.955 17.958,20.347 15.397,17.786 13.12,18.729     13.12,22.353 9.737,22.353 9.737,18.731 7.46,17.788 4.897,20.35 2.506,17.958 5.066,15.397 4.124,13.12 0.5,13.12 0.5,9.737     4.121,9.737 5.065,7.461 2.503,4.898 4.895,2.506 7.455,5.066 9.732,4.125 9.732,0.5 13.116,0.5 13.116,4.121 "/> 		<circle oryx:anchors="top left" id="_DAF8F550-6C2C-4C5A-8F9C-8E5844FA0555frame21" style="opacity:1;fill:none" stroke="#000000" cx="11.427" cy="11.426" r="3.714"/> 		<polygon oryx:anchors="top left" id="_DAF8F550-6C2C-4C5A-8F9C-8E5844FA0555frame22" style="opacity:1;fill:#ffffff" stroke="#000000" points="21.392,11.064 23.954,8.502 26.347,10.895 23.786,13.455     24.729,15.732 28.353,15.732 28.353,19.115 24.731,19.115 23.788,21.392 26.351,23.955 23.958,26.347 21.397,23.786 19.12,24.729     19.12,28.353 15.737,28.353 15.737,24.731 13.46,23.788 10.897,26.35 8.506,23.958 11.066,21.397 10.124,19.12 6.5,19.12     6.5,15.737 10.121,15.737 11.065,13.461 8.503,10.898 10.895,8.506 13.455,11.066 15.732,10.125 15.732,6.5 19.116,6.5     19.116,10.121 "/> 		<circle oryx:anchors="top left" id="_DAF8F550-6C2C-4C5A-8F9C-8E5844FA0555frame23" style="opacity:1;fill:none;" stroke="#000000" cx="17.427" cy="17.426" r="3.714"/> 	</g> 	 	<g id="_DAF8F550-6C2C-4C5A-8F9C-8E5844FA0555sendTask" display="none"> 		<path id="_DAF8F550-6C2C-4C5A-8F9C-8E5844FA0555stframe24" oryx:anchors="left top" stroke="#FFFFFF" fill="black" stroke-width="1" d="M8,11 L8,21 L24,21 L24,11 L16,17z"/> 		<path id="_DAF8F550-6C2C-4C5A-8F9C-8E5844FA0555stframe25" oryx:anchors="left top" stroke="#FFFFFF" fill="black" stroke-width="1" d="M7,10 L16,17 L25 10z"/> 	</g> 	 	<g id="_DAF8F550-6C2C-4C5A-8F9C-8E5844FA0555receiveTask" display="none"> 		<path id="_DAF8F550-6C2C-4C5A-8F9C-8E5844FA0555frame26" oryx:anchors="left top" stroke="#000000" fill="none" stroke-width="1" d="M8,11 L8,21 L24,21 L24,11z M8,11 L16,17 L24,11"/> 	</g> 	 	<g id="_DAF8F550-6C2C-4C5A-8F9C-8E5844FA0555none" display="inherit"/>  	<g id="_DAF8F550-6C2C-4C5A-8F9C-8E5844FA0555sequential" display="none">         <path oryx:anchors="bottom" fill="none" stroke="#000000" stroke-width="2" d="M46,76h10M46,72h10 M46,68h10" id="_DAF8F550-6C2C-4C5A-8F9C-8E5844FA0555__DAF8F550-6C2C-4C5A-8F9C-8E5844FA0555_20"/>     </g>   </g></g><g class="children" style="overflow:hidden"/><g class="edge"/></g><g class="controls"><g class="dockers"/><g class="magnets" transform="translate(195, 140)"><g pointer-events="all" display="none" transform="translate(-7, 12)"><circle cx="8" cy="8" r="4" stroke="none" fill="red" fill-opacity="0.3"/></g><g pointer-events="all" display="none" transform="translate(-7, 32)"><circle cx="8" cy="8" r="4" stroke="none" fill="red" fill-opacity="0.3"/></g><g pointer-events="all" display="none" transform="translate(-7, 52)"><circle cx="8" cy="8" r="4" stroke="none" fill="red" fill-opacity="0.3"/></g><g pointer-events="all" display="none" transform="translate(17, 71)"><circle cx="8" cy="8" r="4" stroke="none" fill="red" fill-opacity="0.3"/></g><g pointer-events="all" display="none" transform="translate(42, 71)"><circle cx="8" cy="8" r="4" stroke="none" fill="red" fill-opacity="0.3"/></g><g pointer-events="all" display="none" transform="translate(67, 71)"><circle cx="8" cy="8" r="4" stroke="none" fill="red" fill-opacity="0.3"/></g><g pointer-events="all" display="none" transform="translate(91, 12)"><circle cx="8" cy="8" r="4" stroke="none" fill="red" fill-opacity="0.3"/></g><g pointer-events="all" display="none" transform="translate(91, 32)"><circle cx="8" cy="8" r="4" stroke="none" fill="red" fill-opacity="0.3"/></g><g pointer-events="all" display="none" transform="translate(91, 52)"><circle cx="8" cy="8" r="4" stroke="none" fill="red" fill-opacity="0.3"/></g><g pointer-events="all" display="none" transform="translate(17, -7)"><circle cx="8" cy="8" r="4" stroke="none" fill="red" fill-opacity="0.3"/></g><g pointer-events="all" display="none" transform="translate(42, -7)"><circle cx="8" cy="8" r="4" stroke="none" fill="red" fill-opacity="0.3"/></g><g pointer-events="all" display="none" transform="translate(67, -7)"><circle cx="8" cy="8" r="4" stroke="none" fill="red" fill-opacity="0.3"/></g><g pointer-events="all" display="none" transform="translate(42, 32)"><circle cx="8" cy="8" r="4" stroke="none" fill="red" fill-opacity="0.3"/></g></g></g></g><g id="_4DBF237A-1F8C-4A48-BE9B-CC60C6E92A50" bpmn2nodeid="_7B24F3F9-D4E9-4F28-9909-83C2BACA1F85"><g class="stencils" transform="translate(340, 140)"><g class="me"><g pointer-events="fill" oryx:minimumSize="50 40" id="_4DBF237A-1F8C-4A48-BE9B-CC60C6E92A50">   	<defs id="_4DBF237A-1F8C-4A48-BE9B-CC60C6E92A50__4DBF237A-1F8C-4A48-BE9B-CC60C6E92A50_17"> 		<radialGradient id="_4DBF237A-1F8C-4A48-BE9B-CC60C6E92A50background" cx="10%" cy="10%" r="100%" fx="10%" fy="10%"> 			<stop offset="0%" stop-color="#ffffff" stop-opacity="1" id="_4DBF237A-1F8C-4A48-BE9B-CC60C6E92A50__4DBF237A-1F8C-4A48-BE9B-CC60C6E92A50_18"/> 			<stop id="_4DBF237A-1F8C-4A48-BE9B-CC60C6E92A50fill_el" offset="100%" stop-color="#fafad2" stop-opacity="1"/> 		</radialGradient> 		<radialGradient id="_4DBF237A-1F8C-4A48-BE9B-CC60C6E92A50borderbackground" cx="10%" cy="10%" r="100%" fx="10%" fy="10%"> 			<stop offset="0%" stop-color="#ffffff" stop-opacity="1" id="_4DBF237A-1F8C-4A48-BE9B-CC60C6E92A50__4DBF237A-1F8C-4A48-BE9B-CC60C6E92A50_19"/> 			<stop id="_4DBF237A-1F8C-4A48-BE9B-CC60C6E92A50fill_border" offset="100%" stop-color="#000000" stop-opacity="1" stroke="#000000"/> 		</radialGradient> 	</defs> 	 	<rect id="_4DBF237A-1F8C-4A48-BE9B-CC60C6E92A50text_frame" oryx:anchors="bottom top right left" x="1" y="1" width="94" height="79" rx="10" ry="10" stroke="none" stroke-width="0" fill="none"/> 	<rect id="_4DBF237A-1F8C-4A48-BE9B-CC60C6E92A50bg_frame" oryx:resize="vertical horizontal" x="0" y="0" width="100" height="80" rx="10" ry="10" stroke="#000000" stroke-width="1" fill="url(#_4DBF237A-1F8C-4A48-BE9B-CC60C6E92A50background) #ffffcc"/> 		<text font-size="12" id="_4DBF237A-1F8C-4A48-BE9B-CC60C6E92A50text_name" x="50" y="40" oryx:align="middle center" oryx:fittoelem="text_frame" stroke="black" text-anchor="middle" stroke-width="0pt" letter-spacing="-0.01px" fill="#000000" transform="rotate(0 50 40)" visibility="inherit" oryx:fontSize="12"><tspan x="50" y="40" dy="5">log</tspan></text>     <g id="_4DBF237A-1F8C-4A48-BE9B-CC60C6E92A50manualTask" transform="scale(0.7,0.7) translate(8,8)" display="none">     	<path oryx:anchors="top left" id="_4DBF237A-1F8C-4A48-BE9B-CC60C6E92A50frame" style="opacity:1;fill:none;fill-opacity:1;stroke-width:1" d="M0.5,3.751l4.083-3.25c0,0,11.166,0.083,12.083,0.083s-2.417,2.917-1.5,2.917     s11.667,0,12.584,0c1.166,1.708-0.168,3.167-0.834,3.667s0.875,1.917-1,4.417c-0.75,0.25,0.75,1.875-1.333,3.333     c-1.167,0.583,0.583,1.542-1.25,2.833c-1.167,0-20.833,0.083-20.833,0.083l-2-1.333V3.751z" stroke="#000000"/> 		<path id="_4DBF237A-1F8C-4A48-BE9B-CC60C6E92A50frame2" oryx:anchors="top left" style="opacity:1;fill:none;stroke-width:2" d="M 13.5 7 L 27 7" stroke="#000000"/> 		<path id="_4DBF237A-1F8C-4A48-BE9B-CC60C6E92A50frame3" oryx:anchors="top left" style="opacity:1;fill:none;stroke-width:2" d="M 13.5 11 L 26 11" stroke="#000000"/> 		<path id="_4DBF237A-1F8C-4A48-BE9B-CC60C6E92A50frame4" oryx:anchors="top left" style="opacity:1;fill:none;stroke-width:1.5" d="M 14 14.5 L 25 14.5" stroke="#000000"/> 		<path id="_4DBF237A-1F8C-4A48-BE9B-CC60C6E92A50frame5" oryx:anchors="top left" style="opacity:1;fill:none;stroke-width:1.5" d="M 8.2 3.1 L 15 3.1" stroke="#000000"/> 	</g> 	 	<g id="_4DBF237A-1F8C-4A48-BE9B-CC60C6E92A50businessRuleTask" transform="scale(0.7,0.7) translate(8,8)" display="none"> 		<rect id="_4DBF237A-1F8C-4A48-BE9B-CC60C6E92A50frame6" oryx:anchors="top left" x="0" y="0" width="22" height="4" style="opacity:1;fill:#B3B1B3;fill-opacity:1;" stroke="#000000"/> 		<rect id="_4DBF237A-1F8C-4A48-BE9B-CC60C6E92A50frame7" oryx:anchors="top left" x="0" y="4" style="opacity:1;fill:none;" width="22" height="12" stroke="#000000"/> 		<path id="_4DBF237A-1F8C-4A48-BE9B-CC60C6E92A50frame8" oryx:anchors="top left" style="opacity:1;fill:none;" d="M 0 10 L 22 10" stroke="#000000"/> 		<path id="_4DBF237A-1F8C-4A48-BE9B-CC60C6E92A50frame9" oryx:anchors="top left" style="opacity:1; fill:none;" d="M 7 4 L 7 16" stroke="#000000"/> 	</g> 	 	<g id="_4DBF237A-1F8C-4A48-BE9B-CC60C6E92A50scriptTask" transform="scale(0.7,0.7) translate(8,8)" display="inherit"> 		<path oryx:anchors="top left" id="_4DBF237A-1F8C-4A48-BE9B-CC60C6E92A50frame10" style="opacity:1;fill:none;" stroke="#000000" d="M6.402,0.5h14.5c0,0-5.833,2.833-5.833,5.583s4.417,6,4.417,9.167    s-4.167,5.083-4.167,5.083H0.235c0,0,5-2.667,5-5s-4.583-6.75-4.583-9.25S6.402,0.5,6.402,0.5z"/> 		<path oryx:anchors="top left" id="_4DBF237A-1F8C-4A48-BE9B-CC60C6E92A50frame11" style="opacity:1;fill:none;stroke-width:1.5" d="M 3.5 4.5 L 13.5 4.5" stroke="#000000"/> 		<path oryx:anchors="top left" id="_4DBF237A-1F8C-4A48-BE9B-CC60C6E92A50frame12" style="opacity:1;fill:none;stroke-width:1.5" d="M 3.8 8.5 L 13.8 8.5" stroke="#000000"/> 		<path oryx:anchors="top left" id="_4DBF237A-1F8C-4A48-BE9B-CC60C6E92A50frame13" style="opacity:1;fill:none;stroke-width:1.5" d="M 6.3 12.5 L 16.3 12.5" stroke="#000000"/> 		<path oryx:anchors="top left" id="_4DBF237A-1F8C-4A48-BE9B-CC60C6E92A50frame14" style="opacity:1;fill:none;stroke-width:1.5" d="M 6.5 16.5 L 16.5 16.5" stroke="#000000"/> 	</g> 	 	<g id="_4DBF237A-1F8C-4A48-BE9B-CC60C6E92A50userTask" transform="scale(0.7,0.7) translate(8,8)" display="none"> 		<path id="_4DBF237A-1F8C-4A48-BE9B-CC60C6E92A50frame15" oryx:anchors="top left" style="opacity:1;fill:#F4F6F7" stroke="#000000" d="M0.585,24.167h24.083v-7.833c0,0-2.333-3.917-7.083-5.167h-9.25    c-4.417,1.333-7.833,5.75-7.833,5.75L0.585,24.167z"/> 		<path id="_4DBF237A-1F8C-4A48-BE9B-CC60C6E92A50frame16" oryx:anchors="top left" style="opacity:1;fill:none" d="M 6 20 L 6 24" stroke="#000000"/> 		<path id="_4DBF237A-1F8C-4A48-BE9B-CC60C6E92A50frame17" oryx:anchors="top left" style="opacity:1;fill:none" d="M 20 20 L 20 24" stroke="#000000"/> 		<circle id="_4DBF237A-1F8C-4A48-BE9B-CC60C6E92A50frame18" oryx:anchors="top left" fill="black" cx="13.002" cy="5.916" r="5.417" stroke="#000000"/> 		<path id="_4DBF237A-1F8C-4A48-BE9B-CC60C6E92A50frame19" oryx:anchors="top left" style="opacity:1;fill:#F0EFF0;" stroke="#000000" d="M8.043,7.083c0,0,2.814-2.426,5.376-1.807s4.624-0.693,4.624-0.693    c0.25,1.688,0.042,3.75-1.458,5.584c0,0,1.083,0.75,1.083,1.5s0.125,1.875-1,3s-5.5,1.25-6.75,0S8.668,12.834,8.668,12    s0.583-1.25,1.25-1.917C8.835,9.5,7.419,7.708,8.043,7.083z"/> 	</g> 	 	<g id="_4DBF237A-1F8C-4A48-BE9B-CC60C6E92A50serviceTask" transform="scale(0.7,0.7) translate(8,8)" display="none"> 		<polygon oryx:anchors="top left" id="_4DBF237A-1F8C-4A48-BE9B-CC60C6E92A50frame20" style="opacity:1;fill:#ffffff" stroke="#000000" points="15.392,5.064 17.954,2.502 20.347,4.895 17.786,7.455     18.729,9.732 22.353,9.732 22.353,13.115 18.731,13.115 17.788,15.392 20.351,17.955 17.958,20.347 15.397,17.786 13.12,18.729     13.12,22.353 9.737,22.353 9.737,18.731 7.46,17.788 4.897,20.35 2.506,17.958 5.066,15.397 4.124,13.12 0.5,13.12 0.5,9.737     4.121,9.737 5.065,7.461 2.503,4.898 4.895,2.506 7.455,5.066 9.732,4.125 9.732,0.5 13.116,0.5 13.116,4.121 "/> 		<circle oryx:anchors="top left" id="_4DBF237A-1F8C-4A48-BE9B-CC60C6E92A50frame21" style="opacity:1;fill:none" stroke="#000000" cx="11.427" cy="11.426" r="3.714"/> 		<polygon oryx:anchors="top left" id="_4DBF237A-1F8C-4A48-BE9B-CC60C6E92A50frame22" style="opacity:1;fill:#ffffff" stroke="#000000" points="21.392,11.064 23.954,8.502 26.347,10.895 23.786,13.455     24.729,15.732 28.353,15.732 28.353,19.115 24.731,19.115 23.788,21.392 26.351,23.955 23.958,26.347 21.397,23.786 19.12,24.729     19.12,28.353 15.737,28.353 15.737,24.731 13.46,23.788 10.897,26.35 8.506,23.958 11.066,21.397 10.124,19.12 6.5,19.12     6.5,15.737 10.121,15.737 11.065,13.461 8.503,10.898 10.895,8.506 13.455,11.066 15.732,10.125 15.732,6.5 19.116,6.5     19.116,10.121 "/> 		<circle oryx:anchors="top left" id="_4DBF237A-1F8C-4A48-BE9B-CC60C6E92A50frame23" style="opacity:1;fill:none;" stroke="#000000" cx="17.427" cy="17.426" r="3.714"/> 	</g> 	 	<g id="_4DBF237A-1F8C-4A48-BE9B-CC60C6E92A50sendTask" display="none"> 		<path id="_4DBF237A-1F8C-4A48-BE9B-CC60C6E92A50stframe24" oryx:anchors="left top" stroke="#FFFFFF" fill="black" stroke-width="1" d="M8,11 L8,21 L24,21 L24,11 L16,17z"/> 		<path id="_4DBF237A-1F8C-4A48-BE9B-CC60C6E92A50stframe25" oryx:anchors="left top" stroke="#FFFFFF" fill="black" stroke-width="1" d="M7,10 L16,17 L25 10z"/> 	</g> 	 	<g id="_4DBF237A-1F8C-4A48-BE9B-CC60C6E92A50receiveTask" display="none"> 		<path id="_4DBF237A-1F8C-4A48-BE9B-CC60C6E92A50frame26" oryx:anchors="left top" stroke="#000000" fill="none" stroke-width="1" d="M8,11 L8,21 L24,21 L24,11z M8,11 L16,17 L24,11"/> 	</g> 	 	<g id="_4DBF237A-1F8C-4A48-BE9B-CC60C6E92A50none" display="inherit"/>  	<g id="_4DBF237A-1F8C-4A48-BE9B-CC60C6E92A50sequential" display="none">         <path oryx:anchors="bottom" fill="none" stroke="#000000" stroke-width="2" d="M46,76h10M46,72h10 M46,68h10" id="_4DBF237A-1F8C-4A48-BE9B-CC60C6E92A50__4DBF237A-1F8C-4A48-BE9B-CC60C6E92A50_20"/>     </g>   </g></g><g class="children" style="overflow:hidden"/><g class="edge"/></g><g class="controls"><g class="dockers"/><g class="magnets" transform="translate(340, 140)"><g pointer-events="all" display="none" transform="translate(-7, 12)"><circle cx="8" cy="8" r="4" stroke="none" fill="red" fill-opacity="0.3"/></g><g pointer-events="all" display="none" transform="translate(-7, 32)"><circle cx="8" cy="8" r="4" stroke="none" fill="red" fill-opacity="0.3"/></g><g pointer-events="all" display="none" transform="translate(-7, 52)"><circle cx="8" cy="8" r="4" stroke="none" fill="red" fill-opacity="0.3"/></g><g pointer-events="all" display="none" transform="translate(17, 71)"><circle cx="8" cy="8" r="4" stroke="none" fill="red" fill-opacity="0.3"/></g><g pointer-events="all" display="none" transform="translate(42, 71)"><circle cx="8" cy="8" r="4" stroke="none" fill="red" fill-opacity="0.3"/></g><g pointer-events="all" display="none" transform="translate(67, 71)"><circle cx="8" cy="8" r="4" stroke="none" fill="red" fill-opacity="0.3"/></g><g pointer-events="all" display="none" transform="translate(91, 12)"><circle cx="8" cy="8" r="4" stroke="none" fill="red" fill-opacity="0.3"/></g><g pointer-events="all" display="none" transform="translate(91, 32)"><circle cx="8" cy="8" r="4" stroke="none" fill="red" fill-opacity="0.3"/></g><g pointer-events="all" display="none" transform="translate(91, 52)"><circle cx="8" cy="8" r="4" stroke="none" fill="red" fill-opacity="0.3"/></g><g pointer-events="all" display="none" transform="translate(17, -7)"><circle cx="8" cy="8" r="4" stroke="none" fill="red" fill-opacity="0.3"/></g><g pointer-events="all" display="none" transform="translate(42, -7)"><circle cx="8" cy="8" r="4" stroke="none" fill="red" fill-opacity="0.3"/></g><g pointer-events="all" display="none" transform="translate(67, -7)"><circle cx="8" cy="8" r="4" stroke="none" fill="red" fill-opacity="0.3"/></g><g pointer-events="all" display="none" transform="translate(42, 32)"><circle cx="8" cy="8" r="4" stroke="none" fill="red" fill-opacity="0.3"/></g></g></g></g><g id="_A3715884-E6D5-4829-BD07-E0CEA9ED0A50" bpmn2nodeid="_60577CA2-7CBC-4355-B83E-09C00710BF33"><g class="stencils" transform="translate(485, 166)"><g class="me"><g pointer-events="fill" id="_A3715884-E6D5-4829-BD07-E0CEA9ED0A50">      <defs id="_A3715884-E6D5-4829-BD07-E0CEA9ED0A50__A3715884-E6D5-4829-BD07-E0CEA9ED0A50_5"> 		<radialGradient id="_A3715884-E6D5-4829-BD07-E0CEA9ED0A50background" cx="10%" cy="10%" r="100%" fx="10%" fy="10%"> 			<stop offset="0%" stop-color="#ffffff" stop-opacity="1" id="_A3715884-E6D5-4829-BD07-E0CEA9ED0A50__A3715884-E6D5-4829-BD07-E0CEA9ED0A50_6"/> 			<stop id="_A3715884-E6D5-4829-BD07-E0CEA9ED0A50fill_el" offset="100%" stop-color="#ff6347" stop-opacity="1"/> 		</radialGradient> 	</defs> 	     <circle id="_A3715884-E6D5-4829-BD07-E0CEA9ED0A50bg_frame" cx="14" cy="14" r="14" stroke="#000000" fill="url(#_A3715884-E6D5-4829-BD07-E0CEA9ED0A50background) white" stroke-width="3"/> 	<text font-size="11" id="_A3715884-E6D5-4829-BD07-E0CEA9ED0A50text_name" x="14" y="30" oryx:align="top center" stroke="black" stroke-width="0pt" letter-spacing="-0.01px" fill="#000000" text-anchor="middle" transform="rotate(0 14 30)" visibility="inherit" oryx:fontSize="11"/>   </g></g><g class="children" style="overflow:hidden"/><g class="edge"/></g><g class="controls"><g class="dockers"/><g class="magnets" transform="translate(485, 166)"><g pointer-events="all" display="none" transform="translate(6, 6)"><circle cx="8" cy="8" r="4" stroke="none" fill="red" fill-opacity="0.3"/></g></g></g></g></g><g class="edge"><g id="_8C7A1464-6403-467B-BBE4-2943EFC250BE" bpmn2nodeid="_A9025A2B-03D8-40BC-9F19-2C64D6A45B32"><g class="stencils"><g class="me"><g pointer-events="painted" bpmn2nodeid="_F31D415D-2F83-46BB-BBCF-8AB3DA261AF3"><path id="_8C7A1464-6403-467B-BBE4-2943EFC250BE_1" d="M150.609375 180L194.15625 180 " stroke="#000000" fill="none" stroke-width="2" stroke-linecap="round" stroke-linejoin="round" marker-start="url(#_8C7A1464-6403-467B-BBE4-2943EFC250BEstart)" marker-end="url(#_8C7A1464-6403-467B-BBE4-2943EFC250BEend)"/></g><text id="_8C7A1464-6403-467B-BBE4-2943EFC250BEtext_name" font-size="12" x="164.609375" y="166" oryx:edgePosition="startTop" stroke-width="0pt" letter-spacing="-0.01px" fill="#000000" text-anchor="start" transform="rotate(360 150.609375 180)" visibility="inherit" oryx:fontSize="12"/></g><g class="children" style="overflow:hidden"/><g class="edge"/></g><g class="controls"><g class="dockers"/><g class="magnets"/></g></g><g id="_F0A3CB21-6AC0-4672-8BC8-2554DA0137E8" bpmn2nodeid="_5B506101-4D3C-4262-A9BC-CD3C8763D264"><g class="stencils"><g class="me"><g pointer-events="painted" bpmn2nodeid="_89732A57-F157-4156-A7D4-7D57F47A17E0"><path id="_F0A3CB21-6AC0-4672-8BC8-2554DA0137E8_1" d="M295.84375 180L339.15625 180 " stroke="#000000" fill="none" stroke-width="2" stroke-linecap="round" stroke-linejoin="round" marker-start="url(#_F0A3CB21-6AC0-4672-8BC8-2554DA0137E8start)" marker-end="url(#_F0A3CB21-6AC0-4672-8BC8-2554DA0137E8end)"/></g><text id="_F0A3CB21-6AC0-4672-8BC8-2554DA0137E8text_name" font-size="12" x="309.84375" y="166" oryx:edgePosition="startTop" stroke-width="0pt" letter-spacing="-0.01px" fill="#000000" text-anchor="start" transform="rotate(360 295.84375 180)" visibility="inherit" oryx:fontSize="12"/></g><g class="children" style="overflow:hidden"/><g class="edge"/></g><g class="controls"><g class="dockers"/><g class="magnets"/></g></g><g id="_76BBA9D9-10AC-4173-B6B8-481B0E53B6DB" bpmn2nodeid="_85395763-4A46-48D3-A4C8-E2E83C7BE4A9"><g class="stencils"><g class="me"><g pointer-events="painted" bpmn2nodeid="_CF33F59C-E1E7-4ED5-89F8-1DB37ADDD331"><path id="_76BBA9D9-10AC-4173-B6B8-481B0E53B6DB_1" d="M440.390625 180L484.375 180 " stroke="#000000" fill="none" stroke-width="2" stroke-linecap="round" stroke-linejoin="round" marker-start="url(#_76BBA9D9-10AC-4173-B6B8-481B0E53B6DBstart)" marker-end="url(#_76BBA9D9-10AC-4173-B6B8-481B0E53B6DBend)"/></g><text id="_76BBA9D9-10AC-4173-B6B8-481B0E53B6DBtext_name" font-size="12" x="454.390625" y="166" oryx:edgePosition="startTop" stroke-width="0pt" letter-spacing="-0.01px" fill="#000000" text-anchor="start" transform="rotate(360 440.390625 180)" visibility="inherit" oryx:fontSize="12"/></g><g class="children" style="overflow:hidden"/><g class="edge"/></g><g class="controls"><g class="dockers"/><g class="magnets"/></g></g></g><text id="_7CB34EF3-8F12-4892-B89E-0EF9D4E25462" style="stroke-width:1;fill:rgb(177,194,214);font-family:arial;font-weight:bold" font-size="12" onclick="ORYX.Plugins.CanvasTitle.openTextualAnalysis()" onmouseover="ORYX.Plugins.CanvasTitle.addToolTip('_7CB34EF3-8F12-4892-B89E-0EF9D4E25462')" transform="translate(10, 20)">RuleFlow v.1.0 (DMNTest.RuleFlow)</text></g></g></svg>